# xmcd CD database file
#
# Track frame offsets:
#	150
#	15572
#	32011
#	46213
#	59061
#	75893
#	90285
#	107882
#	126758
#	140923
#	155599
#
# Disc length: 2361 seconds
#
# Revision: 0
# Processed by: cddbd v1.5.2PL0 Copyright (c) Steve Scherf et al.
# Submitted via: CDex 1.40Release
#
DISCID=8809370b
DTITLE=Crossin Dixon - Crossin Dixon
DYEAR=1900
DGENRE=Country
TTITLE0=Guitar Slinger
TTITLE1=Don't Give up on ME
TTITLE2=Stomp
TTITLE3=Don't Waste Your Pretty (Blue Eyes)
TTITLE4=Let the Bad Times Roll
TTITLE5=Nineteen
TTITLE6=Make You Mine
TTITLE7=I Love My Old Bird Dog
TTITLE8=I Can Try
TTITLE9=Moonshine and Mountain Dew
TTITLE10=Just Look What You've Done
EXTD=ID3G: 2
EXTT0=
EXTT1=
EXTT2=
EXTT3=
EXTT4=
EXTT5=
EXTT6=
EXTT7=
EXTT8=
EXTT9=
EXTT10=
PLAYORDER=
